<?xml version="1.0" standalone="no"?>
<!DOCTYPE svg PUBLIC "-//W3C//DTD SVG 20010904//EN"
 "http://www.w3.org/TR/2001/REC-SVG-20010904/DTD/svg10.dtd">
<svg version="1.0" xmlns="http://www.w3.org/2000/svg"
 width="512.000000pt" height="512.000000pt" viewBox="0 0 512.000000 512.000000"
 preserveAspectRatio="xMidYMid meet">
<metadata>
Created by potrace 1.14, written by Peter Selinger 2001-2017
</metadata>
<g transform="translate(0.000000,512.000000) scale(0.100000,-0.100000)"
fill="#000000" stroke="none">
<path d="M699 5116 c-2 -2 -22 -7 -44 -10 -38 -6 -92 -20 -125 -33 -8 -4 -17
-7 -20 -7 -3 -1 -30 -13 -62 -28 -97 -45 -199 -128 -279 -228 -37 -47 -59 -84
-119 -210 -4 -8 -16 -47 -26 -85 -18 -68 -19 -136 -19 -1940 0 -1029 3 -1890
8 -1915 45 -272 254 -520 513 -611 145 -50 65 -49 2064 -46 1709 2 1870 4
1920 19 111 34 173 61 246 110 187 125 307 304 350 523 19 100 16 3791 -4
3845 -7 19 -15 42 -17 51 -7 34 -68 170 -81 184 -8 7 -14 17 -14 21 0 4 -17
28 -37 53 -126 153 -276 247 -478 298 -30 8 -3768 17 -3776 9z"/>
</g>
</svg>
